<svg width="60" height="60" viewBox="0 0 60 60" fill="none" xmlns="http://www.w3.org/2000/svg">
<rect x="1" y="1" width="58" height="58" rx="9" fill="#F5CECE" stroke="black" stroke-width="2"/>
<path d="M17.325 20.5789L17.3249 20.5789L17.3218 20.584C16.607 21.7583 16.28 23.1656 16.28 24.752C16.28 25.9036 16.3927 27.1731 16.6124 28.5567L16.6128 28.5592C16.8342 29.9323 17.1468 31.1884 17.5551 32.3227C17.8107 33.0327 18.2475 33.642 18.8344 34.1488L18.8445 34.1575L18.8548 34.1659C19.0492 34.325 19.2561 34.4586 19.4736 34.5683C19.0138 34.7825 18.5895 35.0843 18.2049 35.4689C17.3652 36.3086 16.92 37.3381 16.92 38.512C16.92 39.6859 17.3652 40.7154 18.2049 41.5551C19.0446 42.3948 20.0741 42.84 21.248 42.84C22.4219 42.84 23.4514 42.3948 24.2911 41.5551C25.1308 40.7154 25.576 39.6859 25.576 38.512C25.576 37.3381 25.1308 36.3086 24.2911 35.4689C23.9135 35.0913 23.4975 34.7934 23.0473 34.58C23.2751 34.4651 23.4905 34.3229 23.6908 34.1512L23.6936 34.1488C24.2805 33.642 24.7173 33.0327 24.9729 32.3227L24.9729 32.3227L24.975 32.3168C25.383 31.1608 25.695 29.8729 25.916 28.4584L25.9164 28.456C26.1357 27.0305 26.248 25.72 26.248 24.528C26.248 23.0049 25.8897 21.6428 25.1243 20.4916C24.2799 19.1866 22.9199 18.6 21.28 18.6C19.5752 18.6 18.1697 19.2099 17.325 20.5789ZM34.5762 20.5789L34.573 20.584C33.8583 21.7583 33.5312 23.1656 33.5312 24.752C33.5312 25.9036 33.644 27.1731 33.8636 28.5567L33.864 28.5592C34.0855 29.9323 34.398 31.1884 34.8064 32.3227C35.062 33.0327 35.4988 33.642 36.0856 34.1488L36.0957 34.1575L36.106 34.1659C36.3004 34.325 36.5073 34.4586 36.7249 34.5683C36.2651 34.7825 35.8407 35.0843 35.4561 35.4689C34.6164 36.3086 34.1712 37.3381 34.1712 38.512C34.1712 39.6859 34.6164 40.7154 35.4561 41.5551C36.2959 42.3948 37.3254 42.84 38.4992 42.84C39.6731 42.84 40.7026 42.3948 41.5424 41.5551C42.3821 40.7154 42.8272 39.6859 42.8272 38.512C42.8272 37.3381 42.3821 36.3086 41.5424 35.4689C41.1648 35.0913 40.7488 34.7934 40.2985 34.58C40.5264 34.4651 40.7417 34.3229 40.942 34.1512L40.9449 34.1488C41.5317 33.642 41.9685 33.0327 42.2241 32.3227L42.2242 32.3227L42.2262 32.3168C42.6342 31.1608 42.9462 29.8729 43.1673 28.4584L43.1676 28.456C43.3869 27.0305 43.4992 25.72 43.4992 24.528C43.4992 23.0049 43.1409 21.6427 42.3755 20.4916C41.5312 19.1866 40.1711 18.6 38.5312 18.6C36.8265 18.6 35.4209 19.2099 34.5762 20.5789Z" fill="#FF9696" stroke="black" stroke-width="2"/>
</svg>
