<svg width="60" height="60" viewBox="0 0 60 60" fill="none" xmlns="http://www.w3.org/2000/svg">
<rect x="1" y="1" width="58" height="58" rx="9" fill="#F5CECE" stroke="black" stroke-width="2"/>
<path d="M18.176 21.104C18.7947 20.1013 19.8293 19.6 21.28 19.6C22.6667 19.6 23.6693 20.08 24.288 21.04C24.928 22 25.248 23.1626 25.248 24.528C25.248 25.6586 25.1413 26.9173 24.928 28.304C24.7147 29.6693 24.416 30.896 24.032 31.984C23.84 32.5173 23.5093 32.9866 23.04 33.392C22.592 33.776 22.0053 33.968 21.28 33.968C20.5547 33.968 19.9573 33.776 19.488 33.392C19.0187 32.9866 18.688 32.5173 18.496 31.984C18.112 30.9173 17.8133 29.7226 17.6 28.4C17.3867 27.056 17.28 25.84 17.28 24.752C17.28 23.3013 17.5787 22.0853 18.176 21.104ZM23.584 40.848C22.9227 41.5093 22.144 41.84 21.248 41.84C20.352 41.84 19.5733 41.5093 18.912 40.848C18.2507 40.1866 17.92 39.408 17.92 38.512C17.92 37.616 18.2507 36.8373 18.912 36.176C19.5733 35.5146 20.352 35.184 21.248 35.184C22.144 35.184 22.9227 35.5146 23.584 36.176C24.2453 36.8373 24.576 37.616 24.576 38.512C24.576 39.408 24.2453 40.1866 23.584 40.848Z" fill="#FF9696"/>
<path d="M35.4272 21.104C36.0459 20.1013 37.0806 19.6 38.5312 19.6C39.9179 19.6 40.9206 20.08 41.5392 21.04C42.1792 22 42.4992 23.1626 42.4992 24.528C42.4992 25.6586 42.3926 26.9173 42.1792 28.304C41.9659 29.6693 41.6672 30.896 41.2832 31.984C41.0912 32.5173 40.7606 32.9866 40.2912 33.392C39.8432 33.776 39.2566 33.968 38.5312 33.968C37.8059 33.968 37.2086 33.776 36.7392 33.392C36.2699 32.9866 35.9392 32.5173 35.7472 31.984C35.3632 30.9173 35.0646 29.7226 34.8512 28.4C34.6379 27.056 34.5312 25.84 34.5312 24.752C34.5312 23.3013 34.8299 22.0853 35.4272 21.104ZM40.8352 40.848C40.1739 41.5093 39.3952 41.84 38.4992 41.84C37.6032 41.84 36.8246 41.5093 36.1632 40.848C35.5019 40.1866 35.1712 39.408 35.1712 38.512C35.1712 37.616 35.5019 36.8373 36.1632 36.176C36.8246 35.5146 37.6032 35.184 38.4992 35.184C39.3952 35.184 40.1739 35.5146 40.8352 36.176C41.4966 36.8373 41.8272 37.616 41.8272 38.512C41.8272 39.408 41.4966 40.1866 40.8352 40.848Z" fill="white"/>
<path d="M17.325 20.5789L17.3249 20.5789L17.3218 20.584C16.607 21.7583 16.28 23.1656 16.28 24.752C16.28 25.9036 16.3927 27.1731 16.6124 28.5567L16.6128 28.5592C16.8342 29.9323 17.1468 31.1884 17.5551 32.3227C17.8107 33.0327 18.2475 33.642 18.8344 34.1488L18.8445 34.1575L18.8548 34.1659C19.0492 34.325 19.2561 34.4586 19.4736 34.5683C19.0138 34.7825 18.5895 35.0843 18.2049 35.4689C17.3652 36.3086 16.92 37.3381 16.92 38.512C16.92 39.6859 17.3652 40.7154 18.2049 41.5551C19.0446 42.3948 20.0741 42.84 21.248 42.84C22.4219 42.84 23.4514 42.3948 24.2911 41.5551C25.1308 40.7154 25.576 39.6859 25.576 38.512C25.576 37.3381 25.1308 36.3086 24.2911 35.4689C23.9135 35.0913 23.4975 34.7934 23.0473 34.58C23.2751 34.4651 23.4905 34.3229 23.6908 34.1512L23.6936 34.1488C24.2805 33.642 24.7173 33.0327 24.9729 32.3227L24.9729 32.3227L24.975 32.3168C25.383 31.1608 25.695 29.8729 25.916 28.4584L25.9164 28.456C26.1357 27.0305 26.248 25.72 26.248 24.528C26.248 23.0049 25.8897 21.6428 25.1243 20.4916C24.2799 19.1866 22.9199 18.6 21.28 18.6C19.5752 18.6 18.1697 19.2099 17.325 20.5789ZM34.5762 20.5789L34.573 20.584C33.8583 21.7583 33.5312 23.1656 33.5312 24.752C33.5312 25.9036 33.644 27.1731 33.8636 28.5567L33.864 28.5592C34.0855 29.9323 34.398 31.1884 34.8064 32.3227C35.062 33.0327 35.4988 33.642 36.0856 34.1488L36.0957 34.1575L36.106 34.1659C36.3004 34.325 36.5073 34.4586 36.7249 34.5683C36.2651 34.7825 35.8407 35.0843 35.4561 35.4689C34.6164 36.3086 34.1712 37.3381 34.1712 38.512C34.1712 39.6859 34.6164 40.7154 35.4561 41.5551C36.2959 42.3948 37.3254 42.84 38.4992 42.84C39.6731 42.84 40.7026 42.3948 41.5424 41.5551C42.3821 40.7154 42.8272 39.6859 42.8272 38.512C42.8272 37.3381 42.3821 36.3086 41.5424 35.4689C41.1648 35.0913 40.7488 34.7934 40.2985 34.58C40.5264 34.4651 40.7417 34.3229 40.942 34.1512L40.9449 34.1488C41.5317 33.642 41.9685 33.0327 42.2241 32.3227L42.2242 32.3227L42.2262 32.3168C42.6342 31.1608 42.9462 29.8729 43.1673 28.4584L43.1676 28.456C43.3869 27.0305 43.4992 25.72 43.4992 24.528C43.4992 23.0049 43.1409 21.6427 42.3755 20.4916C41.5312 19.1866 40.1711 18.6 38.5312 18.6C36.8265 18.6 35.4209 19.2099 34.5762 20.5789Z" stroke="black" stroke-width="2"/>
</svg>
